<?xml version="1.0" encoding="utf-8"?>
<!-- Generator: Adobe Illustrator 24.3.0, SVG Export Plug-In . SVG Version: 6.00 Build 0)  -->
<svg version="1.1" id="Layer_1" xmlns="http://www.w3.org/2000/svg" xmlns:xlink="http://www.w3.org/1999/xlink" x="0px" y="0px"
	 viewBox="0 0 512 512" style="enable-background:new 0 0 512 512;" xml:space="preserve">
<g>
	<path d="M40.5,471.5c27.03,27,62.47,40.5,97.95,40.5c35.5-0.03,71-13.5,97.97-40.5l78.36-78.38l-39.18-39.18l-78.36,78.38
		c-32.39,32.33-85.12,32.39-117.56,0c-32.39-32.41-32.39-85.15,0-117.56l78.38-78.36l-39.18-39.18L40.5,275.58
		C-13.47,329.58-13.47,417.49,40.5,471.5z M471.52,236.4c53.95-54.01,53.95-141.91,0-195.92c-54.03-54.01-141.94-53.95-195.92,0
		l-78.36,78.38l39.18,39.18l78.36-78.38c32.41-32.33,85.15-32.39,117.56,0c32.39,32.41,32.39,85.15,0,117.56l-78.38,78.36
		l39.18,39.18L471.52,236.4z"/>
	<rect x="89.76" y="228.3" transform="matrix(0.7071 -0.7071 0.7071 0.7071 -106.0381 256.0082)" width="332.49" height="55.41"/>
</g>
</svg>
