<?xml version="1.0" encoding="utf-8"?>
<!-- Generator: Adobe Illustrator 24.1.1, SVG Export Plug-In . SVG Version: 6.00 Build 0)  -->
<svg version="1.1" id="Layer_1" xmlns="http://www.w3.org/2000/svg" xmlns:xlink="http://www.w3.org/1999/xlink" x="0px" y="0px"
	 viewBox="0 0 512 512" style="enable-background:new 0 0 512 512;" xml:space="preserve">
<style type="text/css">
	.st0{fill:#444444;}
</style>
<g>
	<path class="st0" d="M369.9,227.1c-1.1-13-3.5-26-6.8-38.6c-10.5-39.8-28-77.9-52.6-110.9c-6.7-9-14-17.6-21.7-25.7
		c-8-8.4-16.9-16.1-22.4-26.5c-3.5-6.6-6.9-13.3-10.3-19.9c0,2.1-0.2,4.2-0.2,6.2c0-2.1,0.1-4.2,0.2-6.2c-0.6-1.6-1.3-3.2-2.2-5.5
		l-0.6,2.2c-0.3,10.8-6.4,18.2-14.1,25.1c-8.6,7.7-16.6,16.1-24.9,24.2l0.9,1.1l-0.9-1.1c-24.6,32.3-46.2,66.8-59,105.6
		c-3.7,11.3-6.6,22.8-8.7,34.5c-4.3,24.9-6.4,49-5,74.2c0.8,13.9,3.2,27.6,6.8,41.1c13.2,49,39.9,89.6,76.5,124.1
		c6.8,6.4,14.1,12.2,21.2,18.4l0-0.2l0,0.2c1,3.6,2.1,7.2,3.1,10.8c1,5.6,2,11.1,2.9,16.7c0.5,5.8,0.9,11.6,1.4,17.4
		c0,3.5-0.2,7.1,0,10.6l1.9,2.6l0.1-0.1l-0.1,0.1c2,0.7,3.9,1.4,5.9,2.1c1.8,0.7,3.6,1.4,6.2,2.4c-0.4-5.8-0.7-10.7-1.1-15.5
		c0-5.1,0-10.2,0-15.3l-0.4,0.4l0.4-0.4c0.7-7.8,1.4-15.5,2.1-23.3c0.5-1.7,1-3.4,1.5-5.1c1.5-2.6,2.9-5.2,4.4-7.8
		c5.5-4.4,11.3-8.4,16.3-13.3c9-8.8,18-17.8,26-27.5c10.4-12.6,19.4-26.3,26.7-41c20.5-41.8,30-88.5,26.3-135L369.9,227.1
		L369.9,227.1z"/>
</g>
</svg>
